<?xml version="1.0" encoding="utf-8"?>
<!-- Generator: Adobe Illustrator 24.0.1, SVG Export Plug-In . SVG Version: 6.00 Build 0)  -->
<svg version="1.1" id="Layer_1" xmlns="http://www.w3.org/2000/svg" xmlns:xlink="http://www.w3.org/1999/xlink" x="0px" y="0px"
	 viewBox="0 0 41 36" style="enable-background:new 0 0 41 36;" xml:space="preserve">
<style type="text/css">
	.st0{fill:#4339DB;}
</style>
<g>
	<path class="st0" d="M22,0c0.1,0.8,0,9.3,0,10.3v0.8l0.7,0.4c2.2,1.2,7.1,3.7,9.1,4.9C34.5,11.4,37.9,5,40.6,0C35.3,0,27.3,0,22,0z
		"/>
	<polygon class="st0" points="0,0.8 10,17.6 19.7,11.7 	"/>
	<path class="st0" d="M20.7,10.8l0-10.5c0-0.1,0-0.1,0-0.2L1.3,0L20.7,10.8L20.7,10.8z"/>
	<polygon class="st0" points="10.7,18.7 20.8,35.4 20.4,12.9 	"/>
	<path class="st0" d="M31,17.4l-9.3-4.9l0.4,22.2l9.1-17.2C31.2,17.5,31.1,17.5,31,17.4L31,17.4z"/>
</g>
</svg>
