<?xml version="1.0" encoding="utf-8"?>
<!-- Generator: Adobe Illustrator 24.0.1, SVG Export Plug-In . SVG Version: 6.00 Build 0)  -->
<svg width="907" height="766" viewBox="0 0 907 766" fill="none" xmlns="http://www.w3.org/2000/svg">
    <path d="M17.7802 632.726L304.57 751.451L355.224 557.774L123.25 476.274L17.7802 632.726Z" fill="#4339DB"/>
    <path d="M145.662 444.202L215.875 339.031L492.774 387.239L499.545 415.077L501.319 422.37L521.528 505.452L264.868 463.627L145.662 444.202Z" fill="#4339DB"/>
    <path d="M243.956 291.731L389.886 339.804L398.816 304.082L400.813 296.096L411.488 253.395L291.76 220.323L243.956 291.731Z" fill="#4339DB"/>
    <path d="M313.568 193.734L417.33 216.007L438.868 220.63L437.79 214.081L435.359 199.305L429.184 161.782L342.849 149.515L313.568 193.734Z" fill="#4339DB"/>
    <path d="M366.757 121.448L409.482 131.586L430.551 20.1404L366.757 121.448Z" fill="#4339DB"/>
    <path fill-rule="evenodd" clip-rule="evenodd" d="M430.613 6.02539L505.615 127.458L425.342 137.187L409.056 139.161L406.259 138.498L354.871 126.305L430.613 6.02539ZM378.642 116.591L403.596 122.512L415.901 57.4231L378.642 116.591ZM434.314 40.4469L418.718 122.942L480.632 115.438L434.314 40.4469Z" fill="#4339DB"/>
    <path fill-rule="evenodd" clip-rule="evenodd" d="M779.67 504.957L887.769 681.687L304.57 751.451L355.224 557.774L779.67 504.957ZM314.571 742.731L875.322 675.653L775.812 512.964L361.169 564.562L314.571 742.731Z" fill="#4339DB"/>
    <path d="M392.588 218.336L438.768 228.248L474.257 221.598L457.351 217.166L438.868 220.63L417.33 216.007L392.588 218.336Z" fill="#4339DB"/>
    <path fill-rule="evenodd" clip-rule="evenodd" d="M510.937 148.265L420.398 128.46L338.398 142.707L301.295 198.74L343.991 207.904L287.528 213.219L232.277 295.749L324.03 325.974L389.151 347.426L523.631 330.401L626.477 317.381L571.964 231.767L508.613 215.16L548.329 207.718L510.937 148.265ZM393.476 203.247L427.904 200.007L422.704 168.406L346.471 157.574L325.841 188.729L393.476 203.247ZM332.943 223.949L392.588 218.336L417.33 216.007L438.868 220.63L457.351 217.166L474.257 221.598L524.867 234.865L412.143 245.826L332.943 223.949ZM425.342 137.187L506.282 154.893L429.184 161.782L342.849 149.515L406.259 138.498L409.056 139.161L425.342 137.187ZM457.623 209.516L444.998 211.882L444.029 205.992L442.813 198.603L437.86 168.506L502.393 162.74L523.99 197.08L474.801 206.297L457.623 209.516ZM294.968 228.958L402.474 258.654L384.589 330.195L255.634 287.714L294.968 228.958ZM399.78 331.022L472.823 321.775L498.386 318.539L523.95 315.302L601.215 305.521L563.397 246.128L417.456 260.319L408.606 295.72L406.789 302.988L404.905 310.523L399.78 331.022Z" fill="#4339DB"/>
    <path fill-rule="evenodd" clip-rule="evenodd" d="M493.124 121.448L409.482 131.586L430.551 20.1404L493.124 121.448ZM434.314 40.4469L418.718 122.942L480.632 115.438L434.314 40.4469Z" fill="#4339DB"/>
    <path fill-rule="evenodd" clip-rule="evenodd" d="M567.236 238.249L613.846 311.451L549.354 319.615L664.079 339.093L733.898 448.475L685.98 463.093L784.676 498.825L900.215 687.721L303.518 759.099L6.47656 636.131L118.911 469.347L190.709 459.11L133.005 449.707L211.4 332.281L400.813 296.096L411.488 253.395L567.236 238.249ZM492.116 416.137L240.249 452.047L158.319 438.696L219.387 347.224L486.673 393.759L492.116 416.137ZM240.098 467.159L154.555 479.355L356.043 550.145L747.868 501.387L662.163 470.359L650.457 466.121L521.528 505.452L264.868 463.627L240.098 467.159ZM257.466 338.69L492.505 379.61L622.995 347.271L523.631 330.401L389.151 347.426L324.03 325.974L257.466 338.69ZM472.823 321.775L399.78 331.022L404.905 310.523L406.789 302.988L408.606 295.72L417.456 260.319L563.397 246.128L601.215 305.521L523.95 315.302L498.386 318.539L472.823 321.775ZM656.154 354.443L501.79 392.7L506.975 414.018L508.749 421.31L510.523 428.602L526.916 495.999L638.751 461.882L650.659 458.25L662.567 454.617L710.719 439.928L656.154 354.443ZM346.256 562.541L126.218 485.234L29.0837 629.322L299.511 741.272L346.256 562.541ZM875.322 675.653L314.571 742.731L361.169 564.562L775.812 512.964L875.322 675.653Z" fill="#4339DB"/>
    <path d="M240.098 467.159L522.043 513.104L662.163 470.359L650.457 466.121L521.528 505.452L264.868 463.627L240.098 467.159Z" fill="#4339DB"/>
    <path fill-rule="evenodd" clip-rule="evenodd" d="M429.184 161.782L506.282 154.893L425.342 137.187L409.056 139.161L406.259 138.498L342.849 149.515L429.184 161.782ZM429.38 154.265L457.125 151.786L420.068 143.68L390.741 148.775L429.38 154.265Z" fill="#4339DB"/>
</svg>