<svg width="5944" height="1323" viewBox="0 0 5944 1323" fill="none" xmlns="http://www.w3.org/2000/svg">
<path d="M237.78 911.726L524.57 1030.45L575.224 836.774L343.25 755.274L237.78 911.726Z" fill="#4339DB"/>
<path d="M365.662 723.202L435.875 618.031L712.774 666.239L719.545 694.077L721.319 701.37L741.528 784.452L484.868 742.627L365.662 723.202Z" fill="#4339DB"/>
<path d="M463.956 570.731L609.886 618.804L618.816 583.082L620.813 575.096L631.488 532.395L511.76 499.323L463.956 570.731Z" fill="#4339DB"/>
<path d="M533.568 472.734L637.33 495.007L658.868 499.63L657.79 493.081L655.359 478.305L649.184 440.782L562.849 428.515L533.568 472.734Z" fill="#4339DB"/>
<path d="M586.757 400.448L629.482 410.586L650.551 299.14L586.757 400.448Z" fill="#4339DB"/>
<path fill-rule="evenodd" clip-rule="evenodd" d="M650.613 285.025L725.615 406.458L645.342 416.187L629.056 418.161L626.259 417.498L574.871 405.305L650.613 285.025ZM598.642 395.591L623.596 401.512L635.901 336.423L598.642 395.591ZM654.314 319.447L638.718 401.942L700.632 394.438L654.314 319.447Z" fill="#4339DB"/>
<path fill-rule="evenodd" clip-rule="evenodd" d="M999.67 783.957L1107.77 960.687L524.57 1030.45L575.224 836.774L999.67 783.957ZM534.571 1021.73L1095.32 954.653L995.812 791.964L581.169 843.562L534.571 1021.73Z" fill="#4339DB"/>
<path d="M612.588 497.336L658.768 507.248L694.257 500.598L677.351 496.166L658.868 499.63L637.33 495.007L612.588 497.336Z" fill="#4339DB"/>
<path fill-rule="evenodd" clip-rule="evenodd" d="M730.937 427.265L640.398 407.46L558.398 421.707L521.295 477.74L563.991 486.904L507.528 492.219L452.277 574.749L544.03 604.974L609.151 626.426L743.631 609.401L846.477 596.381L791.964 510.767L728.613 494.16L768.329 486.718L730.937 427.265ZM613.476 482.247L647.904 479.007L642.704 447.406L566.471 436.574L545.841 467.729L613.476 482.247ZM552.943 502.949L612.588 497.336L637.33 495.007L658.868 499.63L677.351 496.166L694.257 500.598L744.867 513.865L632.143 524.826L552.943 502.949ZM645.342 416.187L726.282 433.893L649.184 440.782L562.849 428.515L626.259 417.498L629.056 418.161L645.342 416.187ZM677.623 488.516L664.998 490.882L664.029 484.992L662.813 477.603L657.86 447.506L722.393 441.74L743.99 476.08L694.801 485.297L677.623 488.516ZM514.968 507.958L622.474 537.654L604.589 609.195L475.634 566.714L514.968 507.958ZM619.78 610.022L692.823 600.775L718.386 597.539L743.95 594.302L821.215 584.521L783.397 525.128L637.456 539.319L628.606 574.72L626.789 581.988L624.905 589.523L619.78 610.022Z" fill="#4339DB"/>
<path fill-rule="evenodd" clip-rule="evenodd" d="M713.124 400.448L629.482 410.586L650.551 299.14L713.124 400.448ZM654.314 319.447L638.718 401.942L700.632 394.438L654.314 319.447Z" fill="#4339DB"/>
<path fill-rule="evenodd" clip-rule="evenodd" d="M787.236 517.249L833.846 590.451L769.354 598.615L884.079 618.093L953.898 727.475L905.98 742.093L1004.68 777.825L1120.22 966.721L523.518 1038.1L226.477 915.131L338.911 748.347L410.709 738.11L353.005 728.707L431.4 611.281L620.813 575.096L631.488 532.395L787.236 517.249ZM712.116 695.137L460.249 731.047L378.319 717.696L439.387 626.224L706.673 672.759L712.116 695.137ZM460.098 746.159L374.555 758.355L576.043 829.145L967.868 780.387L882.163 749.359L870.457 745.121L741.528 784.452L484.868 742.627L460.098 746.159ZM477.466 617.69L712.505 658.61L842.995 626.271L743.631 609.401L609.151 626.426L544.03 604.974L477.466 617.69ZM692.823 600.775L619.78 610.022L624.905 589.523L626.789 581.988L628.606 574.72L637.456 539.319L783.397 525.128L821.215 584.521L743.95 594.302L718.386 597.539L692.823 600.775ZM876.154 633.443L721.79 671.7L726.975 693.018L728.749 700.31L730.523 707.602L746.916 774.999L858.751 740.882L870.659 737.25L882.567 733.617L930.719 718.928L876.154 633.443ZM566.256 841.541L346.218 764.234L249.084 908.322L519.511 1020.27L566.256 841.541ZM1095.32 954.653L534.571 1021.73L581.169 843.562L995.812 791.964L1095.32 954.653Z" fill="#4339DB"/>
<path d="M460.098 746.159L742.043 792.104L882.163 749.359L870.457 745.121L741.528 784.452L484.868 742.627L460.098 746.159Z" fill="#4339DB"/>
<path fill-rule="evenodd" clip-rule="evenodd" d="M649.184 440.782L726.282 433.893L645.342 416.187L629.056 418.161L626.259 417.498L562.849 428.515L649.184 440.782ZM649.38 433.265L677.125 430.786L640.068 422.68L610.741 427.775L649.38 433.265Z" fill="#4339DB"/>
<path d="M1635.47 866.291C1610.44 866.291 1588.26 862.991 1568.92 856.336C1549.57 849.68 1533.25 840.578 1519.99 829.03C1506.74 817.482 1496.56 803.886 1489.56 788.356C1482.56 772.826 1479.04 756.102 1479.04 738.296H1538.77C1538.77 747.398 1541.04 756.329 1545.59 765.033C1550.14 773.737 1556.57 781.359 1564.93 787.788C1573.3 794.216 1583.42 799.449 1595.37 803.431C1607.31 807.413 1620.68 809.404 1635.47 809.404C1668.07 809.404 1691.39 803.716 1705.44 792.338C1719.49 780.961 1726.49 766.74 1726.49 749.674C1726.49 720.093 1703.74 701.15 1658.23 692.787L1581.43 678.566C1549.97 672.877 1526.42 660.76 1510.89 642.158C1495.36 623.557 1487.57 600.631 1487.57 573.326C1487.57 557 1490.87 541.754 1497.52 527.532C1504.18 513.311 1513.57 500.967 1525.68 490.556C1537.8 480.146 1552.7 471.898 1570.34 465.811C1587.97 459.724 1607.77 456.709 1629.78 456.709C1654.81 456.709 1676.72 460.008 1695.49 466.664C1714.26 473.32 1729.9 482.422 1742.42 493.97C1754.93 505.517 1764.43 519.113 1770.86 534.643C1777.29 550.173 1780.53 566.898 1780.53 584.703H1720.8C1720.8 575.601 1718.7 566.67 1714.54 557.967C1710.39 549.263 1704.42 541.64 1696.63 535.212C1688.83 528.784 1679.39 523.55 1668.18 519.568C1656.98 515.586 1644.18 513.595 1629.78 513.595C1616.13 513.595 1604.19 515.245 1593.95 518.431C1583.71 521.673 1575.17 525.997 1568.35 531.515C1561.52 537.033 1556.29 543.347 1552.7 550.571C1549.12 557.796 1547.3 565.362 1547.3 573.326C1547.3 586.239 1551.85 597.389 1560.95 606.889C1570.05 616.389 1585.41 623.215 1607.03 627.368L1669.6 638.745C1709.82 645.97 1739.29 658.371 1758.06 676.006C1776.84 693.641 1786.22 718.216 1786.22 749.674C1786.22 766 1782.98 781.246 1776.55 795.467C1770.12 809.689 1760.62 822.033 1748.11 832.443C1735.59 842.854 1719.95 851.102 1701.18 857.189C1682.4 863.276 1660.5 866.291 1635.47 866.291Z" fill="#4339DB"/>
<path d="M1843.11 462.398H2104.79V519.285H1902.84V633.058H2093.41V689.944H1902.84V803.717H2104.79V860.603H1843.11V462.398Z" fill="#4339DB"/>
<path d="M2269.76 462.398H2360.78L2505.84 860.603H2440.42L2406.29 766.74H2224.25L2190.12 860.603H2124.7L2269.76 462.398ZM2386.38 712.698L2320.96 530.662H2309.58L2244.16 712.698H2386.38Z" fill="#4339DB"/>
<path d="M2537.12 462.398H2596.86V803.717H2790.27V860.603H2537.12V462.398Z" fill="#4339DB"/>
<path d="M2946.3 858.616V458.654H3203.9V513.411H3005.82V631.019H3191.52V685.299H3005.82V858.616H2946.3Z" fill="#4339DB"/>
<path d="M3241.3 858.609V571.018H3289.87L3295.58 597.682H3298.44C3304.15 589.111 3310.82 582.445 3318.91 577.684C3327.01 572.922 3337.96 571.018 3351.29 571.018H3402.24V623.394H3356.53C3337.48 623.394 3322.72 628.631 3312.72 638.63C3302.25 649.105 3297.49 663.866 3297.49 683.388V858.133H3241.3V858.609Z" fill="#4339DB"/>
<path d="M3519.85 864.346C3499.85 864.346 3481.76 860.537 3466.52 852.443C3451.29 844.824 3438.91 833.873 3430.34 820.541C3421.77 807.209 3417.48 791.972 3417.48 774.831C3417.48 756.261 3421.77 740.073 3430.34 726.264C3438.91 712.456 3451.76 701.981 3468.9 693.886C3486.05 686.268 3507.47 681.983 3533.66 681.983H3606.99V674.365C3606.99 655.795 3601.75 641.034 3590.8 629.607C3579.85 618.656 3565.09 612.942 3546.52 612.942C3534.14 612.942 3523.66 614.846 3514.61 618.656C3505.57 622.465 3498.43 627.702 3493.19 633.892C3487.95 640.558 3485.09 647.224 3483.66 654.366H3428.43C3429.38 638.654 3435.1 623.893 3444.62 610.085C3454.14 596.277 3467.48 584.849 3485.09 576.755C3502.71 568.184 3523.18 564.375 3546.99 564.375C3570.8 564.375 3591.27 568.66 3608.89 577.707C3626.51 586.754 3640.32 599.61 3649.84 615.799C3659.36 632.464 3664.12 651.51 3664.12 673.888V857.204H3615.56L3609.84 825.779H3606.99C3600.32 835.302 3589.37 843.872 3574.13 851.491C3558.9 859.109 3540.8 862.918 3520.8 862.918L3519.85 864.346ZM3525.57 816.256C3542.23 816.256 3556.99 812.923 3569.37 806.733C3581.75 800.067 3591.27 791.02 3597.46 779.116C3603.65 767.213 3606.99 753.405 3606.99 738.168V727.693H3537.95C3516.04 727.693 3500.33 731.978 3489.85 740.073C3479.38 748.643 3474.62 759.118 3474.62 772.45C3474.62 785.782 3478.9 795.782 3487.95 803.876C3497 811.97 3509.38 815.78 3526.04 815.78L3525.57 816.256Z" fill="#4339DB"/>
<path d="M3726.97 858.612V571.02H3775.54L3781.25 600.541H3784.11C3790.77 591.494 3800.77 583.4 3814.1 575.781C3827.44 568.639 3841.24 564.83 3856.48 564.83C3876.48 564.83 3893.62 569.592 3907.9 579.114C3922.19 588.637 3932.66 599.113 3938.38 610.54H3941.23C3949.33 598.636 3961.23 588.161 3977.9 578.638C3994.09 569.115 4013.13 564.83 4034.08 564.83C4054.08 564.83 4071.7 569.592 4087.41 579.591C4103.12 589.113 4115.5 602.922 4125.03 620.063C4134.07 637.204 4138.83 656.726 4138.83 679.105V858.612H4082.17V682.438C4082.17 669.582 4079.79 658.155 4075.03 648.632C4070.27 639.109 4063.6 631.49 4055.03 626.253C4046.46 621.015 4036.46 618.634 4024.56 618.634C4013.61 618.634 4003.13 621.491 3993.13 626.729C3983.13 632.443 3975.52 640.061 3969.8 650.06C3964.09 660.059 3961.23 671.01 3961.23 682.438V858.612H3905.05V682.438C3905.05 669.582 3902.67 658.155 3897.9 648.632C3893.14 639.109 3886.48 631.49 3877.43 626.253C3868.38 621.015 3858.38 618.634 3846.48 618.634C3835.53 618.634 3825.05 621.491 3815.53 626.729C3806.01 632.443 3797.91 640.061 3792.2 650.06C3786.49 660.059 3783.15 671.01 3783.15 682.438V858.612H3726.97Z" fill="#4339DB"/>
<path d="M4328.33 864.347C4301.66 864.347 4277.38 858.157 4255.95 845.301C4234.53 832.446 4217.39 814.828 4205.01 791.973C4192.63 769.118 4185.96 743.406 4185.96 714.362C4185.96 685.317 4192.15 660.081 4205.01 637.702C4217.39 614.847 4234.53 597.23 4255.95 584.374C4277.38 571.518 4301.66 565.328 4328.33 565.328C4353.56 565.328 4376.42 571.518 4397.37 583.422C4418.32 595.325 4434.98 612.467 4446.89 633.893C4458.79 655.32 4464.98 679.127 4464.98 705.791C4464.98 712.457 4464.98 718.647 4464.03 724.361C4463.55 730.074 4462.6 733.884 4462.13 736.264H4242.15C4244.05 751.977 4248.81 765.785 4256.91 777.689C4265 789.593 4275 799.115 4287.38 805.305C4299.76 811.971 4313.57 814.828 4328.33 814.828C4344.52 814.828 4358.33 811.495 4370.71 804.353C4383.08 797.211 4392.13 787.688 4398.8 776.26H4456.41C4450.7 792.926 4442.13 808.162 4430.22 821.018C4418.8 834.35 4404.04 844.825 4386.89 852.444C4369.75 860.062 4350.23 864.347 4327.85 864.347H4328.33ZM4408.8 692.935C4407.84 678.175 4404.04 664.842 4396.89 652.463C4389.75 640.083 4380.23 631.036 4367.85 624.37C4355.47 617.704 4342.61 613.895 4328.33 613.895C4313.09 613.895 4299.28 617.228 4286.9 624.37C4274.52 631.036 4264.52 640.559 4256.91 652.463C4249.29 664.366 4244.53 677.698 4242.15 692.935H4408.8Z" fill="#4339DB"/>
<path d="M4552.12 858.609L4475.94 571.018H4534.98L4591.64 788.14H4603.07L4659.73 571.018H4733.53L4790.19 788.14H4801.62L4857.81 571.018H4917.32L4840.66 858.609H4756.86L4702.58 648.153H4691.16L4636.87 858.609H4553.07H4552.12Z" fill="#4339DB"/>
<path d="M5070.15 864.347C5043.49 864.347 5019.21 858.157 4997.78 845.301C4975.88 832.446 4959.21 814.828 4946.83 791.973C4934.45 769.118 4928.26 743.406 4928.26 714.362C4928.26 685.317 4934.45 660.081 4946.83 637.702C4959.21 614.847 4976.35 597.23 4997.78 584.374C5019.21 571.518 5043.49 565.328 5070.15 565.328C5096.82 565.328 5120.62 571.518 5142.05 584.374C5163.48 597.23 5180.62 614.847 5193 637.702C5205.38 660.557 5211.57 685.793 5211.57 714.362C5211.57 742.93 5205.38 769.118 5193 791.973C5180.62 814.828 5163.48 832.446 5142.05 845.301C5120.15 858.157 5096.34 864.347 5070.15 864.347ZM5070.15 812.447C5085.87 812.447 5100.15 808.638 5113.48 800.544C5126.81 792.449 5136.81 781.022 5144.43 766.261C5152.05 751.501 5155.86 734.36 5155.86 714.838C5155.86 695.316 5152.05 678.651 5144.43 663.89C5136.81 649.13 5126.34 637.702 5113.48 629.608C5100.63 621.513 5085.87 617.704 5070.15 617.704C5054.44 617.704 5040.16 621.513 5026.82 629.608C5013.49 637.702 5003.49 649.13 4995.87 663.89C4988.26 678.651 4984.45 695.792 4984.45 714.838C4984.45 733.884 4988.26 751.501 4995.87 766.261C5003.49 781.022 5013.97 792.449 5026.82 800.544C5039.68 808.638 5054.44 812.447 5070.15 812.447Z" fill="#4339DB"/>
<path d="M5260.63 858.609V571.018H5309.2L5314.91 597.682H5317.77C5323.48 589.111 5330.15 582.445 5338.24 577.684C5346.34 572.922 5357.29 571.018 5370.62 571.018H5421.57V623.394H5375.86C5356.81 623.394 5342.05 628.631 5332.05 638.63C5321.58 649.105 5316.81 663.866 5316.81 683.388V858.133H5260.63V858.609Z" fill="#4339DB"/>
<path d="M5457.74 858.616V458.654H5513.92V701.964L5632.96 571.025H5701.05L5572.01 711.487L5706.76 858.14H5638.67L5513.92 721.486V858.14H5457.74V858.616Z" fill="#4339DB"/>
<path d="M5827.24 864.325C5801.53 864.325 5780.1 860.04 5762.01 850.993C5743.91 841.947 5730.11 830.519 5721.06 816.711C5712.01 802.903 5707.25 788.618 5707.25 773.382H5762.48C5762.48 781 5764.86 788.142 5770.1 794.332C5775.34 800.998 5782.48 806.236 5792 810.045C5801.53 813.854 5812.95 816.235 5826.76 816.235C5846.76 816.235 5862 812.902 5872.47 805.76C5882.95 798.617 5888.66 790.047 5888.66 779.095C5888.66 768.144 5885.33 760.526 5878.19 754.336C5871.04 748.146 5860.09 743.861 5844.38 741.004L5797.72 732.909C5769.15 728.148 5747.72 718.625 5732.96 705.293C5718.68 691.961 5711.06 673.391 5711.06 650.536C5711.06 634.347 5715.34 620.063 5723.44 607.207C5732.01 594.351 5744.39 583.876 5761.53 576.258C5778.67 568.639 5799.15 564.83 5823.43 564.83C5847.71 564.83 5867.71 569.115 5885.33 577.686C5902.95 586.257 5916.75 597.684 5926.28 611.492C5935.8 625.777 5940.56 640.061 5940.56 654.822H5885.33C5885.33 647.203 5882.95 640.061 5877.71 633.871C5872.95 627.205 5865.81 622.444 5856.28 618.634C5846.76 614.825 5835.81 612.921 5823.43 612.921C5805.34 612.921 5791.05 616.73 5781.53 623.872C5772.01 631.014 5766.77 640.061 5766.77 650.536C5766.77 659.107 5770.1 666.725 5776.29 672.439C5782.96 678.153 5793.43 682.438 5808.19 684.819L5856.28 692.913C5885.8 697.675 5908.18 707.197 5922.47 721.482C5936.75 735.766 5943.89 754.336 5943.89 778.143C5943.89 794.332 5939.61 808.616 5930.56 821.472C5921.52 834.328 5908.18 844.803 5891.04 852.422C5873.42 860.04 5852 863.849 5826.29 863.849L5827.24 864.325Z" fill="#4339DB"/>
</svg>
